<svg xmlns="http://www.w3.org/2000/svg" width="1024" height="1024" viewBox="0 0 1024 1024" role="img" aria-label="Puraa">
  <!-- White backing (squircle-shaped): keeps the dove white on any surface; corners stay transparent. -->
  <rect x="0" y="0" width="1024" height="1024" rx="176" fill="#FFFFFF"/>
  <!-- Dove-as-P mark, traced from the original render, filled teal. The white backing shows through as the dove. -->
  <g transform="translate(-0.488316,1023.868275) scale(0.100000,-0.100000)" fill="#047C6E" stroke="none">
    <path d="M1760 10229 c-641 -64 -1213 -456 -1534 -1050 -97 -181 -178 -435
-208 -655 -11 -81 -13 -699 -13 -3419 0 -3712 -6 -3392 70 -3669 142 -517 507
-972 974 -1214 195 -100 352 -154 576 -195 120 -22 120 -22 3410 -25 2331 -2
3328 0 3420 8 663 56 1220 425 1552 1030 95 173 174 412 210 635 27 167 28
6719 1 6885 -147 901 -867 1593 -1738 1670 -142 12 -6595 11 -6720 -1z m1153
-1749 c120 -162 246 -276 472 -425 178 -118 280 -173 710 -387 193 -96 388
-196 435 -223 571 -325 873 -749 966 -1355 19 -122 21 -429 4 -555 -27 -197
-31 -181 40 -145 150 76 261 188 451 455 267 375 415 486 634 472 164 -10 282
-105 316 -255 12 -49 15 -53 53 -63 44 -11 171 -78 163 -85 -2 -3 -33 -9 -68
-15 -87 -13 -177 -59 -232 -118 -89 -96 -135 -222 -187 -521 -48 -272 -90
-419 -158 -555 -151 -303 -413 -512 -887 -710 -318 -133 -460 -222 -586 -367
-166 -193 -218 -384 -219 -808 -1 -422 -90 -681 -315 -919 -194 -205 -426
-317 -717 -346 l-58 -5 0 1380 0 1379 66 -50 c152 -115 446 -222 569 -208 25
4 19 8 -45 32 -316 121 -586 356 -715 622 -37 77 -80 221 -90 302 l-7 52 106
-50 c198 -93 390 -152 614 -188 131 -22 399 -45 447 -39 35 4 5 14 -294 98
-604 169 -842 281 -1057 494 -189 187 -306 430 -321 666 -6 95 -6 95 15 80
343 -243 667 -381 1283 -550 193 -53 316 -89 394 -115 11 -4 -2 8 -30 26 -76
49 -213 111 -505 226 -146 57 -305 120 -355 140 -705 279 -1014 564 -1111
1023 -18 87 -27 390 -12 406 4 4 17 -6 29 -22 45 -59 236 -243 313 -299 231
-170 504 -307 1121 -560 143 -58 302 -126 353 -150 50 -24 92 -42 92 -40 0 8
-161 121 -240 167 -99 59 -285 159 -525 283 -448 231 -637 350 -827 519 -289
257 -427 606 -389 981 17 169 79 365 152 480 31 48 31 48 71 -26 22 -41 58
-99 81 -129z m3235 -1171 c919 -100 1557 -765 1611 -1682 58 -989 -499 -1719
-1430 -1873 -83 -14 -188 -18 -519 -21 -415 -4 -415 -4 -360 32 30 20 107 61
170 92 505 244 595 298 755 458 206 204 326 460 400 845 76 396 98 464 185
562 50 58 168 119 263 138 37 8 67 18 67 23 0 21 -140 146 -192 171 -52 25
-55 29 -72 87 -37 122 -155 237 -285 277 -84 25 -236 23 -327 -5 -179 -57
-308 -179 -542 -513 -109 -156 -201 -271 -236 -293 -21 -14 -21 -14 -21 222 0
201 -4 255 -23 366 -80 449 -301 816 -662 1097 -35 27 -35 27 543 28 342 0
617 -4 675 -11z"/>
    <path d="M6635 6105 c-30 -30 -31 -54 -4 -89 40 -50 119 -21 119 44 0 64 -70
91 -115 45z"/>
  </g>

  <!-- Letter carried at the beak -->
  <g transform="rotate(-11 835 470)">
    <rect x="757" y="410" width="168" height="116" rx="14"
          fill="#6FD3C1" stroke="#06423B" stroke-width="10"/>
    <path d="M761 418 L841 476 L921 418"
          fill="none" stroke="#06423B" stroke-width="10"
          stroke-linejoin="round" stroke-linecap="round"/>
  </g>
</svg>
