<svg xmlns="http://www.w3.org/2000/svg" width="540" height="120" viewBox="0 0 540 120" fill="none" role="img" aria-label="Puraa">
  <style>
    .wm-text{fill:#101615}
    @media (prefers-color-scheme:dark){.wm-text{fill:#F1F5F3}}
  </style>
  <g transform="scale(0.117188)">
  <!-- White backing (squircle-shaped): keeps the dove white on any surface; corners stay transparent.
       Inset a touch inside the teal body so it never peeks past the squircle as a light rim on dark grounds. -->
  <rect x="24" y="24" width="976" height="976" rx="170" fill="#FFFFFF"/>
  <!-- Dove-as-P mark, traced from the original render, filled teal. The white backing shows through as the dove. -->
  <g transform="translate(-0.488316,1023.868275) scale(0.100000,-0.100000)" fill="#047C6E" stroke="none">
    <path d="M1760 10229 c-641 -64 -1213 -456 -1534 -1050 -97 -181 -178 -435
-208 -655 -11 -81 -13 -699 -13 -3419 0 -3712 -6 -3392 70 -3669 142 -517 507
-972 974 -1214 195 -100 352 -154 576 -195 120 -22 120 -22 3410 -25 2331 -2
3328 0 3420 8 663 56 1220 425 1552 1030 95 173 174 412 210 635 27 167 28
6719 1 6885 -147 901 -867 1593 -1738 1670 -142 12 -6595 11 -6720 -1z m1153
-1749 c120 -162 246 -276 472 -425 178 -118 280 -173 710 -387 193 -96 388
-196 435 -223 571 -325 873 -749 966 -1355 19 -122 21 -429 4 -555 -27 -197
-31 -181 40 -145 150 76 261 188 451 455 267 375 415 486 634 472 164 -10 282
-105 316 -255 12 -49 15 -53 53 -63 44 -11 171 -78 163 -85 -2 -3 -33 -9 -68
-15 -87 -13 -177 -59 -232 -118 -89 -96 -135 -222 -187 -521 -48 -272 -90
-419 -158 -555 -151 -303 -413 -512 -887 -710 -318 -133 -460 -222 -586 -367
-166 -193 -218 -384 -219 -808 -1 -422 -90 -681 -315 -919 -194 -205 -426
-317 -717 -346 l-58 -5 0 1380 0 1379 66 -50 c152 -115 446 -222 569 -208 25
4 19 8 -45 32 -316 121 -586 356 -715 622 -37 77 -80 221 -90 302 l-7 52 106
-50 c198 -93 390 -152 614 -188 131 -22 399 -45 447 -39 35 4 5 14 -294 98
-604 169 -842 281 -1057 494 -189 187 -306 430 -321 666 -6 95 -6 95 15 80
343 -243 667 -381 1283 -550 193 -53 316 -89 394 -115 11 -4 -2 8 -30 26 -76
49 -213 111 -505 226 -146 57 -305 120 -355 140 -705 279 -1014 564 -1111
1023 -18 87 -27 390 -12 406 4 4 17 -6 29 -22 45 -59 236 -243 313 -299 231
-170 504 -307 1121 -560 143 -58 302 -126 353 -150 50 -24 92 -42 92 -40 0 8
-161 121 -240 167 -99 59 -285 159 -525 283 -448 231 -637 350 -827 519 -289
257 -427 606 -389 981 17 169 79 365 152 480 31 48 31 48 71 -26 22 -41 58
-99 81 -129z m3235 -1171 c919 -100 1557 -765 1611 -1682 58 -989 -499 -1719
-1430 -1873 -83 -14 -188 -18 -519 -21 -415 -4 -415 -4 -360 32 30 20 107 61
170 92 505 244 595 298 755 458 206 204 326 460 400 845 76 396 98 464 185
562 50 58 168 119 263 138 37 8 67 18 67 23 0 21 -140 146 -192 171 -52 25
-55 29 -72 87 -37 122 -155 237 -285 277 -84 25 -236 23 -327 -5 -179 -57
-308 -179 -542 -513 -109 -156 -201 -271 -236 -293 -21 -14 -21 -14 -21 222 0
201 -4 255 -23 366 -80 449 -301 816 -662 1097 -35 27 -35 27 543 28 342 0
617 -4 675 -11z"/>
    <path d="M6635 6105 c-30 -30 -31 -54 -4 -89 40 -50 119 -21 119 44 0 64 -70
91 -115 45z"/>
  </g>

  <!-- Letter carried at the beak -->
  <g transform="rotate(-11 835 470)">
    <rect x="757" y="410" width="168" height="116" rx="14"
          fill="#6FD3C1" stroke="#06423B" stroke-width="10"/>
    <path d="M761 418 L841 476 L921 418"
          fill="none" stroke="#06423B" stroke-width="10"
          stroke-linejoin="round" stroke-linecap="round"/>
  </g>
</g>
  <path class="wm-text" d="M163 190V304H305Q376 304 411.0 332.5Q446 361 446 426Q446 486 414.0 516.0Q382 546 314 546H163V660H320Q381 660 431.0 645.5Q481 631 517.5 602.0Q554 573 573.5 529.0Q593 485 593 425Q593 348 558.0 295.5Q523 243 455.5 216.5Q388 190 288 190ZM61 0V660H205V0Z" transform="translate(150.000 102.240) scale(0.12800 -0.12800)"/>
  <path class="wm-text" d="M227 -14Q137 -14 92.5 48.0Q48 110 48 238V525H193V249Q193 176 214.0 142.0Q235 108 278 108Q305 108 325.5 121.5Q346 135 361.0 161.0Q376 187 384.0 223.5Q392 260 393 307V525H537V227V0H417L418 183H404Q393 114 371.0 70.5Q349 27 313.5 6.5Q278 -14 227 -14Z" transform="translate(229.104 102.240) scale(0.12800 -0.12800)"/>
  <path class="wm-text" d="M55 0V263V525H177L175 330H190Q197 404 216.0 449.5Q235 495 267.0 516.0Q299 537 344 537Q356 537 370.0 534.5Q384 532 400 527L393 371Q375 380 356.5 384.0Q338 388 323 388Q286 388 259.5 369.0Q233 350 218.0 313.5Q203 277 199 224V0Z" transform="translate(304.880 102.240) scale(0.12800 -0.12800)"/>
  <path class="wm-text" d="M183 -14Q141 -14 106.5 2.0Q72 18 51.5 50.5Q31 83 31 133Q31 178 48.0 207.5Q65 237 97.0 255.5Q129 274 172.5 285.0Q216 296 267 304Q308 311 331.0 316.0Q354 321 363.5 330.5Q373 340 373 358Q373 389 351.5 408.0Q330 427 288 427Q262 427 237.5 417.5Q213 408 196.5 387.0Q180 366 176 332L48 359Q54 408 76.0 442.0Q98 476 131.0 497.5Q164 519 205.5 529.0Q247 539 292 539Q368 539 417.0 513.0Q466 487 490.0 435.0Q514 383 514 304V212Q515 178 515.5 142.0Q516 106 517.5 70.5Q519 35 522 0H395Q393 31 391.0 65.5Q389 100 388 138H375Q365 96 339.0 61.5Q313 27 273.5 6.5Q234 -14 183 -14ZM243 92Q262 92 282.5 99.0Q303 106 322.0 120.5Q341 135 355.0 158.0Q369 181 375 212L374 271L398 270Q384 257 362.0 249.5Q340 242 314.5 237.5Q289 233 263.5 228.0Q238 223 217.5 215.0Q197 207 184.5 193.0Q172 179 172 155Q172 125 192.0 108.5Q212 92 243 92Z" transform="translate(357.872 102.240) scale(0.12800 -0.12800)"/>
  <path class="wm-text" d="M183 -14Q141 -14 106.5 2.0Q72 18 51.5 50.5Q31 83 31 133Q31 178 48.0 207.5Q65 237 97.0 255.5Q129 274 172.5 285.0Q216 296 267 304Q308 311 331.0 316.0Q354 321 363.5 330.5Q373 340 373 358Q373 389 351.5 408.0Q330 427 288 427Q262 427 237.5 417.5Q213 408 196.5 387.0Q180 366 176 332L48 359Q54 408 76.0 442.0Q98 476 131.0 497.5Q164 519 205.5 529.0Q247 539 292 539Q368 539 417.0 513.0Q466 487 490.0 435.0Q514 383 514 304V212Q515 178 515.5 142.0Q516 106 517.5 70.5Q519 35 522 0H395Q393 31 391.0 65.5Q389 100 388 138H375Q365 96 339.0 61.5Q313 27 273.5 6.5Q234 -14 183 -14ZM243 92Q262 92 282.5 99.0Q303 106 322.0 120.5Q341 135 355.0 158.0Q369 181 375 212L374 271L398 270Q384 257 362.0 249.5Q340 242 314.5 237.5Q289 233 263.5 228.0Q238 223 217.5 215.0Q197 207 184.5 193.0Q172 179 172 155Q172 125 192.0 108.5Q212 92 243 92Z" transform="translate(430.064 102.240) scale(0.12800 -0.12800)"/>
  <path d="M114 -13Q67 -13 44.0 7.0Q21 27 21 69Q21 112 44.0 132.0Q67 152 114 152Q161 152 184.5 132.0Q208 112 208 69Q208 -13 114 -13Z" transform="translate(504.256 102.240) scale(0.12800 -0.12800)" fill="#45D6C0"/>
</svg>
